<svg xmlns="http://www.w3.org/2000/svg" version="1.1" viewBox="0 0 66 32" width="66" height="32" stroke-width="0" fill="#313497">
  <use href="#PmWiki" stroke-width="2" stroke="#fff"/>
  <g id="PmWiki">
    <path id="P" fill="#ed2024" d="M11.1 21.2L11.4 29Q11.4 30.5 10 30.6L9.6 30.6Q8 30.6 7.9 29Q7.3 20.3 8.6 12.5Q8.8 11.4 9.9 11.1Q10.2 11.1 10.4 11.2Q11.3 11.6 11.3 12.5L11.1 16Q11.1 16.9 12 17.2Q15.1 17.9 18 17Q21 16 21.9 12.8Q22.8 9.8 21.5 7Q19.7 2.7 13.1 5.5Q8.5 7.5 4.7 11.5Q3.4 12.8 4.2 14.7Q4.7 15.9 3.5 16L3 16.1Q1.9 16.2 1.6 15.2Q-0 10.2 7.7 4.5Q7.8 4.5 7.8 4.5Q11.1 2.1 15.1 1.3Q19.8 0.5 22.5 2.7Q26.1 5.6 26 10.3Q25.7 21.4 14.8 21.5Q14.2 21.5 13.5 21.3L11.8 20.7Q11.1 20.5 11.1 21.2Z"/>
    <path id="m" d="M17.5 25.4Q17 25.1 16.4 25.4Q15.8 25.7 15.7 26.4L15.1 29.7Q15 30.6 14.1 30.5L13.5 30.5Q12.6 30.5 12.6 29.7Q11.8 22.8 16.3 22.2Q17.1 22.2 18.4 22.5Q20.2 22.9 21.2 22.4Q22.5 21.9 23.9 22.1Q28.2 22.7 27.1 29.6Q26.9 30.8 25.6 30.7Q24.5 30.5 24.4 29.1Q24.3 27.7 24 26.4Q23.8 25.4 22.8 25.4Q21.8 25.4 21.6 26.2Q21.1 27.7 20.9 29.5Q20.8 30.6 19.8 30.5Q18.5 30.4 18.4 29.1Q18.2 27.5 18 26.1Q18 25.6 17.5 25.4Z"/>
    <path id="W" d="M32.9 24.9L35.1 16.6Q35.5 15.3 36.8 15.4Q38.5 15.6 38.9 17.1Q40.1 21 40.9 24.5Q41.4 26.8 41.8 24.5L42.7 18Q43 16.3 44.6 15.6Q45.1 15.4 45.5 15.7Q46.8 16.3 46.4 17.7Q45.4 22.3 44.3 27Q44 28.5 43.3 29.9Q42.4 31.8 40.5 30.8Q39.2 30.1 38.8 28.4Q38 25 37.1 21.8Q36.8 20.8 36.6 21.8Q35.9 25.3 34.9 28.8Q34.2 31.2 31.9 31Q30.4 30.8 29.8 28.3Q28.6 22.9 27.5 17.9Q27.4 17.2 27.6 16.6Q28 15.6 28.9 15.5Q29.8 15.3 30.4 16.1Q31.2 17.2 31.4 18.5Q31.8 21.8 32.5 24.9Q32.7 25.7 32.9 24.9Z"/>
    <rect id="i1" x="47.5" y="20.8" width="2.9" height="10.1" rx="1.4"/><circle id="i1-dot" cx="49" cy="18.5" r="1.6"/>
    <path id="k" d="M56 23.5L57.6 21.8Q57.6 21.7 57.7 21.7Q60 20.3 60.6 21.9Q60.7 22.4 60.4 22.7L58.5 24.7Q57.9 25.3 58.5 26Q60.1 27.6 61 29.6Q61.4 30.4 60.5 30.7Q60 30.9 59.4 30.7Q58.1 30.3 57.3 29.2L56 27.2Q55.5 26.5 55.5 27.3L55.3 29.6Q55.2 30.6 54.2 30.8L53.8 30.8Q52.3 31.1 52.3 29.5L52.3 18Q52.3 17.1 53.3 17L53.7 16.9Q55 16.8 55.2 18Q55.7 20.4 55.3 23.1Q55.1 24.3 56 23.5Z"/>
    <rect id="i2" x="61.8" y="20.9" width="2.9" height="9.9" rx="1.2"/><circle id="i2-dot" cx="63.2" cy="18.5" r="1.6"/>
  </g>
</svg>
